#!OML:ASF F:\VICON\USERDATA\INSTALL\rory3\rory3.ASF
:FULLY-SPECIFIED
:DEGREES
29
root -0.009182934047812674 17.792003347866203 7.859807401674425 -2.8259497190491847 -5.764261328511634 1.8634890471970307
lfemur 11.583940855803966 -3.999122471969384 -26.37412953193988
ltibia 17.234271855902506
lfoot -8.46119118285592 -4.111008501787115
ltoes -2.045938381198077
rfemur -27.902986506328375 2.457603683643043 18.873781870702746
rtibia 44.70694464983774
rfoot -8.927814750476553 -2.439270713969407
rtoes 6.229389767981991
lowerback 1.0 0.1981557016910584 -3.0538352261776516
upperback 0.5419393562672216 -0.3005665139350524 0.8516404295810646
thorax -4.993451745099789 -0.03384464882139537 2.3560520326216015
lowerneck -16.945765325211777 -3.001717720624244 -1.1488919122842653
upperneck 21.099206099457355 -3.8874194825325956 1.1330546897060358
head 9.5521555489725 -1.846321821228466 0.21421423488864788
lclavicle -1.0741079154951347e-15 -4.0407570248880457e-16
lhumerus -22.058902999629474 -5.399933883728613 82.62691009490798
lradius 29.49649275151495
lwrist 6.078617388882675
lhand -27.036166116430635 24.233460137278716
lfingers nan
lthumb -0.5419089640359049 53.8432985826672
rclavicle -1.1957534964575695e-15 -4.97727553749557e-16
rhumerus -32.19132513153815 -20.674757503277014 -81.35620400157589
rradius 24.23889166139526
rwrist 1.9965985784158864
rhand -17.75652508238509 1.0
rfingers nan
rthumb 8.732201964729406 -6.884975346889368
30
root 0.007155666473787126 17.761863574995104 8.457930618536217 -2.890589262120699 -5.7831122125995895 2.182761693340812
lfemur 11.489649742836406 -3.5318106843718624 -24.935208059040185
ltibia 21.71109444704984
lfoot -8.258342311892939 -1.8721653130078983
ltoes -3.803371141291494
rfemur -27.976962097810627 2.5440591260901746 18.76147798384977
rtibia 38.80594578102841
rfoot -9.648156747661027 -2.106859063192025
rtoes 5.497155626091617
lowerback 1.0 0.17457747907579046 -3.4239264045618056
upperback 0.5515643259538642 -0.37336032870321256 0.7356659884509177
thorax -4.892537740435692 -0.07721377349974967 2.7033545821384437
lowerneck -16.799190353408505 -2.9629950630906445 -1.1681172039196293
upperneck 21.214601913912457 -3.8155885872460877 1.1739177684044801
head 9.662970158922944 -1.8122385384216468 0.24362294513749144
lclavicle -1.0775107892950247e-15 -4.052925915178545e-16
lhumerus -22.14880647575306 -3.959492439777554 82.52756978230815
lradius 30.377293082554914
lwrist 5.814008415297442
lhand -26.918034292015772 23.545738049754835
lfingers nan
lthumb -0.498171929149994 53.16284682246882
rclavicle -1.1981795340747156e-15 -4.942331026984504e-16
rhumerus -33.0370263124595 -21.416757206343615 -80.11494608742933
rradius 24.325160449764386
rwrist 3.9373359595368354
rhand -17.868091916920378 1.0
rfingers nan
rthumb 8.716669907672784 -6.370368329866872
31
root 0.06763285673632452 17.760634921143506 10.722463726772743 -2.853942348893819 -5.247714554954266 3.175975187291446
lfemur 10.971292679845007 -3.2351867421817295 -24.673301856057066
ltibia 26.628086598523012
lfoot -8.632052533676266 0.3682476189657822
ltoes -5.271382453774441
rfemur -27.93551406010909 2.4036118187062496 17.84099886946419
rtibia 33.034255228525524
rfoot -9.853047634059353 -2.492126631737227
rtoes 4.841929653808289
lowerback 1.0 -0.20970193476025056 -4.213248399717745
upperback 0.6374688917698745 -0.9570547498976876 0.8573600332280343
thorax -4.77690763588582 -0.3488284154854414 2.908491998606165
lowerneck -17.164096680052875 -2.9407626343878066 -1.3391826690831157
upperneck 21.08757900722337 -3.8082464648421115 1.193818257170089
head 9.67651318147085 -1.8116746980832676 0.24080867399515649
lclavicle -1.0975056402341378e-15 -4.1904610143907254e-16
lhumerus -22.483901658406403 -3.3323645445800025 82.51828959344056
lradius 30.782527742627032
lwrist 5.587189535987946
lhand -27.066507395451087 23.184338693453046
lfingers nan
lthumb -0.594468120679193 52.95983995568105
rclavicle -1.2170188927554355e-15 -5.050239207199534e-16
rhumerus -33.520086460069756 -22.462926781967276 -78.72113930727225
rradius 25.06582378678837
rwrist 3.9076335755656912
rhand -17.891498326267058 1.0
rfingers nan
rthumb 8.792236481515602 -5.946942448234772
32
root 0.16928517763598397 17.783904396956032 13.178765711691772 -2.616940132118823 -4.620908627610039 3.1575155769827057
lfemur 10.272757237142805 -3.0670064538919117 -23.711594290536297
ltibia 31.638721316114275
lfoot -8.298526423355746 2.4558817384394147
ltoes -7.102902468552369
rfemur -27.894430694236586 2.393389262507404 17.850681269668126
rtibia 28.167243122626964
rfoot -9.092498165310818 -4.087359306086044
rtoes 3.9667706059889176
lowerback 1.0 -0.4503117840680352 -4.038334652261341
upperback 0.6210448772716605 -1.1532618832735573 0.9491469605212611
thorax -4.7558920979216515 -0.49737983827745136 3.115966680254594
lowerneck -17.1020243058401 -2.869424620740257 -1.4635426424458782
upperneck 21.027532903595205 -3.679947809799367 1.1577934261612604
head 9.644058813483452 -1.759137776689915 0.26798694412009083
lclavicle -1.0888160402305197e-15 -4.126002429051843e-16
lhumerus -22.87454794055646 -3.3400065418393314 82.5815550348307
lradius 30.833246216969407
lwrist 5.372864940479033
lhand -27.30242032132049 22.81538607653527
lfingers nan
lthumb -0.7856475828490802 52.62217280287086
rclavicle -1.2068288062752064e-15 -4.960462607495588e-16
rhumerus -33.84591381805863 -24.040043259473453 -77.43106422273723
rradius 25.59555629189195
rwrist 3.769691030880517
rhand -17.857689547719282 1.0
rfingers nan
rthumb 8.76845678755547 -5.913693393370113
